<?xml version="1.0" encoding="UTF-8"?>
<!DOCTYPE svg PUBLIC "-//W3C//DTD SVG 1.1//EN" "http://www.w3.org/Graphics/SVG/1.1/DTD/svg11.dtd">
<svg version="1.1" xmlns="http://www.w3.org/2000/svg" xmlns:xlink="http://www.w3.org/1999/xlink" x="0" y="0" width="24" height="24" viewBox="0, 0, 24, 24">
  <g id="star-icon">
    <path d="M12,2.02 C12.451,2.02 12.81,2.233 12.956,2.682 L14.852,8.865 L20.998,8.851 C21.956,8.849 22.368,10.067 21.605,10.647 L16.583,14.466 L18.517,20.678 C18.807,21.61 17.728,22.363 16.953,21.769 L12.004,17.97 L7.046,21.769 C6.272,22.363 5.193,21.61 5.483,20.678 L7.417,14.466 L2.395,10.647 C1.632,10.067 2.044,8.849 3.002,8.851 L9.148,8.865 L11.044,2.682 C11.19,2.233 11.55,2.02 12,2.02 L12,2.02 z" fill="#FF9320"/>
    <path d="M-40.759,-4.898 L-39.319,-13.297 L-45.421,-19.245 L-36.988,-20.471 L-33.216,-28.113 L-29.445,-20.471 L-21.011,-19.245 L-27.114,-13.297 L-25.673,-4.898 L-33.216,-8.863 z" fill="#FF9320"/>
  </g>
</svg>
